<svg xmlns="http://www.w3.org/2000/svg" viewBox="0 0 512 512" style="enable-background:new 0 0 512 512" xml:space="preserve"><circle style="fill:#ff965f" cx="256" cy="256" r="247.706"/><path style="fill:#ff7846" d="M353.313 432.933c-122.147 0-221.166-99.019-221.166-221.166 0-91.123 55.121-169.349 133.828-203.221-3.313-.132-6.629-.252-9.975-.252C119.195 8.294 8.294 119.195 8.294 256c0 136.804 110.902 247.706 247.706 247.706 78.023 0 147.58-36.108 192.984-92.485-28.953 13.913-61.401 21.712-95.671 21.712z"/><circle style="fill:none;stroke:#464646;stroke-width:16;stroke-linecap:round;stroke-linejoin:round;stroke-miterlimit:10" cx="384.276" cy="401.97" r="4.423"/><path style="fill:#ff7846" d="M301.753 12.581C286.917 9.81 271.64 8.294 256 8.294c-91.777 0-171.836 49.952-214.634 124.113 56.131 2.574 95.606 37.843 116.565 81.318 1.572 3.262 4.517 5.632 8.075 6.312l21.626 4.135c5.085.972 9.901-2.836 9.978-8.014.334-22.368 7.592-74.75 67.974-77.376 22.062-.959 39.825-5.663 52.869-10.682 4.198-1.616 2.992-7.711-1.506-7.709-57.863.025-83.854-83.487-15.194-107.81z"/><path style="fill:#dc5f3c" d="M41.366 132.407c39.648 1.818 70.941 19.987 93.314 45.799 11.642-76.456 62.443-140.029 131.294-169.66-3.313-.132-6.629-.252-9.975-.252-91.776 0-171.835 49.951-214.633 124.113z"/><path style="fill:#ff7846" d="M489.635 173.664c-26.872-18.527-60.882-24.182-50.067 12.668 23.459 79.936-.186 134.613-11.397 154.375-2.674 4.714-8.567 6.48-13.438 4.102-27.877-13.613-117.779-55.977-134.405-44.576-34.69 23.788-44.951 44.688-45.711 60.512-.345 7.188-10.492 8.575-12.684 1.722-8.979-28.07 1.004-65.372 7.415-84.332 1.847-5.462-2.788-10.9-8.466-9.907l-28.409 4.972c-1.819.318-3.437 1.344-4.573 2.8-46.084 59.035-136.057 44.746-177.926 8.491 14.542 126.902 124.92 224.67 256.979 218.979 122.859-5.294 224.77-102.41 235.74-224.893 3.317-37.027-1.634-72.496-13.058-104.913z"/><path style="fill:#dc5f3c" d="M353.313 432.933c-89.039 0-165.738-52.643-200.802-128.479-47.597 23.159-109.767 8.413-142.536-19.964C24.113 407.867 128.837 503.706 256 503.706c76.412 0 144.719-34.619 190.157-89.005.929-1.148 1.908-2.34 2.818-3.469l.006-.008c-28.951 13.91-61.398 21.709-95.668 21.709z"/><circle style="fill:#ff7846" cx="397.546" cy="123.3" r="17.693"/><path style="fill:#ff7846" d="M334.353 21.017c-20.826 10.019-35.409 34.569-15.795 49.59 17.019 13.033 66.394-2.984 105.175 3.159a247.506 247.506 0 0 0-89.38-52.749z"/><path d="M437.019 74.981C388.668 26.628 324.38 0 256 0S123.332 26.628 74.981 74.981 0 187.62 0 256s26.628 132.668 74.981 181.019C123.332 485.372 187.62 512 256 512s132.668-26.628 181.019-74.981C485.372 388.668 512 324.38 512 256s-26.628-132.668-74.981-181.019zm-92.581-41.582a237.231 237.231 0 0 1 55.286 31.089c-11.913-.202-24.034.776-35.307 1.686-17.399 1.406-35.389 2.857-41.69-1.613-5.577-3.958-5.448-7.809-4.867-10.361 2.04-8.946 14.41-18.598 26.578-20.801zm80.853 391.892C380.071 470.51 319.95 495.413 256 495.413S131.929 470.51 86.709 425.291c-34.039-34.04-56.56-76.525-65.619-122.728 22.754 16.363 54.546 25.803 84.825 24.321 35.535-1.743 66.786-17.892 88.374-45.58l26.814-4.692c-3.424 10.282-7.656 25.232-9.75 41.355-6.697 51.549 13.837 72.797 32.242 81.544a8.293 8.293 0 0 0 10.491-2.937 8.295 8.295 0 0 0-1.471-10.796c-.106-.093-10.594-9.718-9.694-24.987.999-16.94 15.556-35.515 42.04-53.678.393-.211 10.258-4.903 67.183 18.494a8.294 8.294 0 0 0 6.306-15.342c-33.209-13.649-69.017-26.327-82.812-16.868-27.247 18.684-43.335 38.001-47.963 57.542-5.775-34.962 13.556-81.071 13.834-81.721a8.294 8.294 0 0 0-9.056-11.431l-44.233 7.741a8.291 8.291 0 0 0-5.245 3.247c-23.865 32.35-55.52 40.448-77.873 41.544-33.063 1.615-67.943-11.327-86.778-32.222a8.335 8.335 0 0 0-.787-.755 244.457 244.457 0 0 1-.949-21.338c0-41.702 10.597-81.773 30.505-117.148 27.157 2.933 50.878 13.781 70.506 32.279a8.268 8.268 0 0 0 5.687 2.258 8.294 8.294 0 0 0 5.69-14.329c-20.442-19.266-44.773-31.218-72.403-35.654A241.879 241.879 0 0 1 86.71 86.714C131.929 41.491 192.051 16.587 256 16.587c10.383 0 20.661.668 30.795 1.961-21.829 11.052-29.715 27.037-32.544 37.273-5.604 20.272 1.609 42.884 18.378 57.608 6.879 6.041 14.839 10.348 23.478 12.877-8.984 2.105-19.301 3.686-30.883 4.189-23.83 1.036-42.578 9.335-55.726 24.669-16.977 19.795-19.987 46.192-20.195 60.883l-23.184-4.432c-3.629-7.762-7.681-15.159-12.077-22.038a8.294 8.294 0 0 0-13.978 8.93c4.69 7.341 8.962 15.348 12.695 23.8a8.295 8.295 0 0 0 6.029 4.794l37.598 7.188a8.307 8.307 0 0 0 9.802-9.039c-.039-.364-3.643-36.58 15.958-59.356 10.039-11.664 24.774-17.999 43.796-18.826 52.936-2.302 82.432-25.134 83.662-26.104a8.294 8.294 0 0 0-8.365-14.151c-31.096 13.122-50.689.283-57.669-5.847-12.022-10.556-17.255-26.542-13.335-40.724 2.821-10.202 12.96-28.308 49.183-34.943.177-.032 1.098-.054 1.537.168-9.731 6.45-17.115 15.594-19.271 25.048-2.426 10.644 1.743 20.693 11.439 27.575 6.572 4.664 15.875 6.064 26.919 6.064 7.814 0 16.5-.701 25.706-1.445 18.617-1.503 39.7-3.201 56.431.968 1.041 1.004 2.082 2.007 3.108 3.033 19.643 19.643 35.446 42.1 47.045 66.459-9.921-4.537-20.41-5.892-28.708-2.647-6.44 2.518-11.116 7.63-13.165 14.396-1.963 6.478-1.577 14.468 1.148 23.751 14.745 50.246 9.83 89.736 3.11 114.017-4.663 16.85-10.819 28.934-14.677 35.489a1186.876 1186.876 0 0 0-27.871-13.21 8.293 8.293 0 0 0-10.994 4.087 8.292 8.292 0 0 0 4.087 10.993c19.406 8.889 33.83 16.173 33.973 16.245a8.293 8.293 0 0 0 10.335-2.367c.513-.671 12.666-16.798 20.88-45.909 7.484-26.524 13.052-69.571-2.927-124.018-1.36-4.636-3.875-15.673 2.142-18.026 8.185-3.201 27.805 4.998 35.609 20.752l.013.024c6.667 22.175 10.124 45.449 10.124 69.254.002 63.949-24.902 124.071-70.12 169.291z"/><path d="M397.546 149.287c14.329 0 25.987-11.658 25.987-25.987s-11.658-25.987-25.987-25.987-25.987 11.658-25.987 25.987 11.658 25.987 25.987 25.987zm0-35.386c5.183 0 9.4 4.217 9.4 9.4 0 5.183-4.217 9.4-9.4 9.4s-9.4-4.217-9.4-9.4c.001-5.184 4.217-9.4 9.4-9.4zM251.577 176.933c-7.012 0-12.717 5.705-12.717 12.717s5.705 12.717 12.717 12.717c7.012 0 12.717-5.705 12.717-12.717s-5.705-12.717-12.717-12.717zM384.276 389.253c-7.012 0-12.717 5.705-12.717 12.717s5.705 12.717 12.717 12.717 12.717-5.705 12.717-12.717-5.704-12.717-12.717-12.717zM65.797 256.553c-7.012 0-12.717 5.705-12.717 12.717 0 7.012 5.705 12.717 12.717 12.717 7.012 0 12.717-5.705 12.717-12.717 0-7.012-5.705-12.717-12.717-12.717z"/></svg>